<svg width="40" height="49" viewBox="0 0 40 49" fill="none" xmlns="http://www.w3.org/2000/svg">
<path d="M18.3592 28.803C19.7139 28.935 20.4707 28.9326 21.7314 28.803C21.0078 21.5211 19.2083 18.3806 14.4251 14.0656C9.83292 10.7982 6.4632 9.47582 0.249786 9.63192C0.061063 10.7907 0.0155861 11.5164 0 12.723C5.23465 12.612 7.94282 13.3987 12.2083 16.3137C16.5233 20.2491 17.9176 22.9998 18.3592 28.803Z" fill="#004E64"/>
<path d="M21.7305 28.803C20.3759 28.935 19.6503 28.9639 18.3896 28.8342C19.1132 21.5523 20.7878 18.3806 25.571 14.0656C30.1632 10.7982 33.5329 9.47582 39.7463 9.63192C39.935 10.7907 39.9805 11.5164 39.9961 12.723C34.7614 12.612 32.0533 13.3987 27.7878 16.3137C23.4728 20.2491 22.1722 22.9998 21.7305 28.803Z" fill="#004E64"/>
<path d="M3.31091 12.785C1.95627 12.653 1.26188 12.5617 0.00125217 12.6913C0.00125217 18.4463 2.34298 23.4634 7.2138 27.5536C11.7724 30.9356 15.082 31.394 15.082 31.394C15.0821 29.4582 15.0664 29.3534 15.082 28.1468C15.082 28.1468 12.834 27.7097 9.46187 25.2431C5.18431 21.3714 3.5607 17.9993 3.31091 12.785Z" fill="#004E64"/>
<path d="M36.7245 12.7538C38.0792 12.6217 38.7423 12.5617 40.0029 12.6913C40.0029 18.4463 37.7237 23.3072 32.8216 27.5437C28.263 30.9257 25.3905 31.3003 25.2031 31.3628L25.2031 28.1156C26.7643 27.4599 26.3081 28.158 30.5736 25.243C34.3828 21.9646 36.5684 18.3427 36.7245 12.7538Z" fill="#004E64"/>
<path d="M15.0856 32.8303V29.6455C10.3118 31.3859 8.55993 33.3923 7.311 34.8598C4.25109 38.5753 3.06464 43.3213 4.21992 48.1609L7.27974 47.474C6.43675 42.8529 7.56079 39.6682 9.65274 36.8268C12.4628 33.5484 15.0856 32.8303 15.0856 32.8303Z" fill="#004E64"/>
<path d="M25.1974 32.9236V29.77C25.9155 30.051 29.0691 30.7379 32.6598 34.8282C35.6884 38.7623 36.8749 42.4154 35.7508 48.1293L32.7222 47.4424C33.534 43.2272 32.8783 40.3859 30.318 36.7952C26.7624 33.0957 25.3535 33.1733 25.1974 32.9236Z" fill="#004E64"/>
<path d="M18.3626 28.8027H21.7347C21.4224 33.8297 19.8613 38.638 15.8335 42.5722C11.8994 46.1004 9.19054 47.2394 4.21846 48.1611C3.985 46.9255 3.90798 46.2292 3.875 44.9764C7.864 44.3146 9.9323 43.3528 13.2107 40.6051C17.0931 36.9016 18.3001 32.5183 18.3626 28.8027Z" fill="#004E64"/>
<path d="M21.7311 28.8027L18.4215 28.834C18.359 33.9858 20.4198 38.5444 24.1978 42.5722C28.2912 46.0391 30.8407 47.2394 35.8128 48.1611C36.0462 46.9255 36.1233 46.2292 36.1562 44.9764C32.1672 44.3146 30.0677 43.2903 26.8205 40.5739C23.2611 37.1706 21.7311 32.9242 21.7311 28.8027Z" fill="#004E64"/>
<path d="M26.3282 6.34577C26.3282 9.85044 23.4872 12.6915 19.9825 12.6915C16.4778 12.6915 13.6367 9.85044 13.6367 6.34577C13.6367 2.8411 16.4778 0 19.9825 0C23.4872 0 26.3282 2.8411 26.3282 6.34577ZM16.175 6.34577C16.175 8.44857 17.8797 10.1532 19.9825 10.1532C22.0853 10.1532 23.7899 8.44857 23.7899 6.34577C23.7899 4.24296 22.0853 2.53831 19.9825 2.53831C17.8797 2.53831 16.175 4.24296 16.175 6.34577Z" fill="#D4AF37"/>
</svg>
