<svg width="242" height="71" viewBox="0 0 242 71" fill="none" xmlns="http://www.w3.org/2000/svg">
<path d="M93.9025 52.8979C94.039 52.8979 94.1072 52.9576 94.1072 53.077L94.0816 53.2305C93.8428 53.9296 93.4592 54.4583 92.9305 54.8164C92.4019 55.1574 91.8818 55.3279 91.3702 55.3279C90.8075 55.3279 90.347 55.1659 89.9889 54.8419C89.6479 54.5179 89.4006 54.0831 89.2471 53.5374C88.6332 54.1343 87.917 54.5947 87.0985 54.9187C86.297 55.2256 85.4955 55.3791 84.6941 55.3791C83.6709 55.3791 82.8609 55.1404 82.2641 54.6629C81.6672 54.1854 81.3688 53.5374 81.3688 52.7189C81.3688 52.0709 81.5137 51.5167 81.8036 51.0562C82.1106 50.5788 82.5881 50.1525 83.2361 49.7773C83.6283 49.5556 84.1143 49.3595 84.6941 49.189C85.2739 49.0184 85.9986 48.8309 86.8683 48.6262C87.1752 48.541 87.5163 48.4557 87.8915 48.3704C88.2837 48.2681 88.71 48.1488 89.1704 48.0123V46.9124C89.1704 46.0427 89.1278 45.4118 89.0425 45.0196C88.9743 44.6103 88.8123 44.2522 88.5565 43.9453C88.2155 43.5019 87.6271 43.2802 86.7916 43.2802C86.2288 43.2802 85.7769 43.4337 85.4359 43.7406C85.1119 44.0305 84.839 44.5165 84.6173 45.1986C84.3274 46.1365 83.8585 46.6055 83.2105 46.6055C82.8865 46.6055 82.5881 46.5032 82.3152 46.2985C82.0424 46.0769 81.906 45.787 81.906 45.4289C81.906 45.1049 82.0253 44.7212 82.2641 44.2778C82.5199 43.8174 83.0059 43.3996 83.7221 43.0244C84.4553 42.6493 85.4955 42.4617 86.8427 42.4617C87.6953 42.4617 88.4627 42.5981 89.1448 42.8709C89.844 43.1267 90.3556 43.4593 90.6796 43.8685C90.9524 44.2266 91.1315 44.6018 91.2167 44.994C91.319 45.3692 91.3702 45.8381 91.3702 46.4009C91.3702 47.3388 91.3617 48.1232 91.3446 48.7541L91.319 52.1306C91.319 52.8468 91.4384 53.3243 91.6772 53.563C91.9159 53.7847 92.1632 53.8955 92.4189 53.8955C92.6406 53.8955 92.8623 53.8273 93.084 53.6909C93.3227 53.5545 93.5359 53.3328 93.7235 53.0258C93.7746 52.9406 93.8343 52.8979 93.9025 52.8979ZM85.8707 54.1002C86.4334 54.1002 86.9962 53.9808 87.5589 53.742C88.1387 53.4863 88.6588 53.1196 89.1192 52.6421C89.1022 52.5398 89.0937 52.3864 89.0937 52.1817L89.1448 48.882C87.3031 49.3254 85.9474 49.8114 85.0778 50.34C84.2081 50.8687 83.7732 51.5593 83.7732 52.4119C83.7732 52.8894 83.9438 53.2901 84.2848 53.6141C84.6259 53.9381 85.1545 54.1002 85.8707 54.1002ZM109.599 54.3559C109.735 54.3559 109.804 54.4668 109.804 54.6885C109.804 54.9102 109.735 55.021 109.599 55.021H103.613C103.494 55.021 103.434 54.9102 103.434 54.6885C103.434 54.4668 103.494 54.3559 103.613 54.3559H103.971C104.449 54.3559 104.824 54.2877 105.097 54.1513C105.387 53.9978 105.532 53.6909 105.532 53.2305L105.506 48.5495L105.481 46.759C105.447 44.7126 104.619 43.6895 102.999 43.6895C102.351 43.6895 101.721 43.8856 101.107 44.2778C100.51 44.653 99.9982 45.2157 99.5719 45.966L99.5463 53.2305C99.5463 53.6909 99.6913 53.9978 99.9812 54.1513C100.271 54.2877 100.663 54.3559 101.158 54.3559H101.465C101.584 54.3559 101.644 54.4668 101.644 54.6885C101.644 54.9102 101.584 55.021 101.465 55.021H95.5048C95.3684 55.021 95.3002 54.9102 95.3002 54.6885C95.3002 54.4668 95.3684 54.3559 95.5048 54.3559H95.8118C96.3063 54.3559 96.6985 54.2877 96.9884 54.1513C97.2783 53.9978 97.4232 53.6909 97.4232 53.2305L97.3465 45.3777C97.3465 44.8661 97.2016 44.5336 96.9117 44.3801C96.6388 44.2266 96.1699 44.1158 95.5048 44.0476C95.4025 44.0305 95.3343 43.9879 95.3002 43.9197C95.2831 43.8515 95.2746 43.7577 95.2746 43.6383C95.2746 43.536 95.3172 43.4678 95.4025 43.4337C95.6412 43.3484 97.031 43.0244 99.5719 42.4617V44.7382C100.663 43.2205 101.985 42.4617 103.537 42.4617C104.901 42.4617 105.924 42.8368 106.606 43.5872C107.305 44.3375 107.68 45.2498 107.732 46.3241C107.749 46.6652 107.757 47.3388 107.757 48.3449C107.757 49.7261 107.74 51.3547 107.706 53.2305C107.706 53.6909 107.842 53.9978 108.115 54.1513C108.405 54.2877 108.797 54.3559 109.292 54.3559H109.599ZM125.886 54.3559C126.022 54.3559 126.09 54.4668 126.09 54.6885C126.09 54.9102 126.022 55.021 125.886 55.021H119.9C119.781 55.021 119.721 54.9102 119.721 54.6885C119.721 54.4668 119.781 54.3559 119.9 54.3559H120.258C120.736 54.3559 121.111 54.2877 121.384 54.1513C121.674 53.9978 121.818 53.6909 121.818 53.2305L121.793 48.5495L121.767 46.759C121.733 44.7126 120.906 43.6895 119.286 43.6895C118.638 43.6895 118.007 43.8856 117.393 44.2778C116.796 44.653 116.285 45.2157 115.859 45.966L115.833 53.2305C115.833 53.6909 115.978 53.9978 116.268 54.1513C116.558 54.2877 116.95 54.3559 117.444 54.3559H117.751C117.871 54.3559 117.93 54.4668 117.93 54.6885C117.93 54.9102 117.871 55.021 117.751 55.021H111.791C111.655 55.021 111.587 54.9102 111.587 54.6885C111.587 54.4668 111.655 54.3559 111.791 54.3559H112.098C112.593 54.3559 112.985 54.2877 113.275 54.1513C113.565 53.9978 113.71 53.6909 113.71 53.2305L113.633 45.3777C113.633 44.8661 113.488 44.5336 113.198 44.3801C112.925 44.2266 112.457 44.1158 111.791 44.0476C111.689 44.0305 111.621 43.9879 111.587 43.9197C111.57 43.8515 111.561 43.7577 111.561 43.6383C111.561 43.536 111.604 43.4678 111.689 43.4337C111.928 43.3484 113.318 43.0244 115.859 42.4617V44.7382C116.95 43.2205 118.272 42.4617 119.823 42.4617C121.188 42.4617 122.211 42.8368 122.893 43.5872C123.592 44.3375 123.967 45.2498 124.018 46.3241C124.035 46.6652 124.044 47.3388 124.044 48.3449C124.044 49.7261 124.027 51.3547 123.993 53.2305C123.993 53.6909 124.129 53.9978 124.402 54.1513C124.692 54.2877 125.084 54.3559 125.579 54.3559H125.886ZM140.714 52.8979C140.851 52.8979 140.919 52.9576 140.919 53.077L140.893 53.2305C140.655 53.9296 140.271 54.4583 139.742 54.8164C139.214 55.1574 138.693 55.3279 138.182 55.3279C137.619 55.3279 137.159 55.1659 136.801 54.8419C136.46 54.5179 136.212 54.0831 136.059 53.5374C135.445 54.1343 134.729 54.5947 133.91 54.9187C133.109 55.2256 132.307 55.3791 131.506 55.3791C130.483 55.3791 129.673 55.1404 129.076 54.6629C128.479 54.1854 128.18 53.5374 128.18 52.7189C128.18 52.0709 128.325 51.5167 128.615 51.0562C128.922 50.5788 129.4 50.1525 130.048 49.7773C130.44 49.5556 130.926 49.3595 131.506 49.189C132.086 49.0184 132.81 48.8309 133.68 48.6262C133.987 48.541 134.328 48.4557 134.703 48.3704C135.095 48.2681 135.522 48.1488 135.982 48.0123V46.9124C135.982 46.0427 135.939 45.4118 135.854 45.0196C135.786 44.6103 135.624 44.2522 135.368 43.9453C135.027 43.5019 134.439 43.2802 133.603 43.2802C133.04 43.2802 132.589 43.4337 132.248 43.7406C131.924 44.0305 131.651 44.5165 131.429 45.1986C131.139 46.1365 130.67 46.6055 130.022 46.6055C129.698 46.6055 129.4 46.5032 129.127 46.2985C128.854 46.0769 128.718 45.787 128.718 45.4289C128.718 45.1049 128.837 44.7212 129.076 44.2778C129.332 43.8174 129.818 43.3996 130.534 43.0244C131.267 42.6493 132.307 42.4617 133.654 42.4617C134.507 42.4617 135.274 42.5981 135.956 42.8709C136.656 43.1267 137.167 43.4593 137.491 43.8685C137.764 44.2266 137.943 44.6018 138.028 44.994C138.131 45.3692 138.182 45.8381 138.182 46.4009C138.182 47.3388 138.173 48.1232 138.156 48.7541L138.131 52.1306C138.131 52.8468 138.25 53.3243 138.489 53.563C138.728 53.7847 138.975 53.8955 139.231 53.8955C139.452 53.8955 139.674 53.8273 139.896 53.6909C140.134 53.5545 140.348 53.3328 140.535 53.0258C140.586 52.9406 140.646 52.8979 140.714 52.8979ZM132.682 54.1002C133.245 54.1002 133.808 53.9808 134.371 53.742C134.95 53.4863 135.47 53.1196 135.931 52.6421C135.914 52.5398 135.905 52.3864 135.905 52.1817L135.956 48.882C134.115 49.3254 132.759 49.8114 131.889 50.34C131.02 50.8687 130.585 51.5593 130.585 52.4119C130.585 52.8894 130.755 53.2901 131.096 53.6141C131.438 53.9381 131.966 54.1002 132.682 54.1002Z" fill="#F5E8C7"/>
<path d="M70.3505 55.551C70.2312 55.551 70.1715 55.4317 70.1715 55.1929C70.1715 54.9712 70.2312 54.8604 70.3505 54.8604H70.7087C71.4419 54.8604 71.9876 54.7325 72.3457 54.4767C72.7038 54.2039 72.8914 53.7434 72.9084 53.0954V49.3097C69.7366 43.0855 68.0314 39.7517 67.7926 39.3083C67.4175 38.6092 67.0508 38.1487 66.6927 37.9271C66.3346 37.6883 65.968 37.569 65.5928 37.569H65.2092C65.0898 37.569 65.0301 37.4581 65.0301 37.2364C65.0301 37.1171 65.0386 37.0318 65.0557 36.9806C65.0898 36.9124 65.1409 36.8783 65.2092 36.8783H72.4992C72.5674 36.8783 72.61 36.9124 72.6271 36.9806C72.6612 37.0318 72.6782 37.1171 72.6782 37.2364C72.6782 37.4581 72.6186 37.569 72.4992 37.569H72.1155C70.8536 37.569 70.2226 37.91 70.2226 38.5921C70.2226 38.7797 70.2909 39.027 70.4273 39.3339C70.6149 39.7773 72.0729 42.608 74.8013 47.8262L78.9195 39.7943C79.0559 39.4703 79.1242 39.206 79.1242 39.0014C79.1242 38.541 78.911 38.1914 78.4847 37.9526C78.0584 37.6968 77.6491 37.569 77.2569 37.569H76.8732C76.7538 37.569 76.6941 37.4581 76.6941 37.2364C76.6941 36.9977 76.7538 36.8783 76.8732 36.8783H83.3191C83.4044 36.8783 83.4555 36.9124 83.4726 36.9806C83.5067 37.0318 83.5238 37.1171 83.5238 37.2364C83.5238 37.4581 83.4555 37.569 83.3191 37.569H82.961C82.5006 37.569 82.0061 37.7651 81.4774 38.1573C80.9488 38.5324 80.4884 39.0611 80.0962 39.7432L75.3896 48.6703V53.0954C75.3896 53.7605 75.5772 54.2209 75.9524 54.4767C76.3446 54.7325 76.8903 54.8604 77.5894 54.8604H77.9475C78.0839 54.8604 78.1522 54.9712 78.1522 55.1929C78.1522 55.4317 78.0839 55.551 77.9475 55.551H70.3505Z" fill="#F5E8C7"/>
<path d="M165.915 54.3861C165.993 54.3861 166.04 54.4096 166.056 54.4566C166.087 54.5036 166.103 54.582 166.103 54.6918C166.103 54.9113 166.04 55.021 165.915 55.021H158.93C158.821 55.021 158.766 54.9113 158.766 54.6918C158.766 54.488 158.821 54.3861 158.93 54.3861H159.283C159.957 54.3861 160.459 54.2685 160.788 54.0333C161.117 53.7982 161.282 53.3827 161.282 52.787V46.4847H152.487V52.7635C152.487 53.3749 152.652 53.7982 152.981 54.0333C153.31 54.2528 153.812 54.3626 154.486 54.3626H154.815C154.893 54.3626 154.94 54.3939 154.956 54.4566C154.987 54.5036 155.003 54.582 155.003 54.6918C155.003 54.8956 154.94 54.9975 154.815 54.9975H147.831C147.721 54.9975 147.666 54.8956 147.666 54.6918C147.666 54.4723 147.721 54.3626 147.831 54.3626H148.184C148.858 54.3626 149.359 54.245 149.689 54.0098C150.033 53.7747 150.206 53.3592 150.206 52.7635V40.0884C150.206 39.477 150.033 39.0537 149.689 38.8186C149.344 38.5834 148.842 38.4658 148.184 38.4658H147.831C147.721 38.4658 147.666 38.3639 147.666 38.1601C147.666 37.9406 147.721 37.8309 147.831 37.8309H154.815C154.94 37.8309 155.003 37.9406 155.003 38.1601C155.003 38.3639 154.94 38.4658 154.815 38.4658H154.486C153.796 38.4658 153.286 38.5834 152.957 38.8186C152.644 39.0537 152.487 39.477 152.487 40.0884V45.5911H161.305V40.1119C161.305 39.5005 161.133 39.0772 160.788 38.8421C160.443 38.6069 159.941 38.4893 159.283 38.4893H158.93C158.821 38.4893 158.766 38.3874 158.766 38.1836C158.766 37.9641 158.821 37.8544 158.93 37.8544H165.915C165.993 37.8544 166.04 37.8858 166.056 37.9485C166.087 37.9955 166.103 38.0739 166.103 38.1836C166.103 38.3874 166.04 38.4893 165.915 38.4893H165.585C164.895 38.4893 164.386 38.6069 164.057 38.8421C163.743 39.0772 163.586 39.5005 163.586 40.1119V52.787C163.586 53.3984 163.751 53.8217 164.08 54.0568C164.409 54.2763 164.911 54.3861 165.585 54.3861H165.915Z" fill="#F5E8C7"/>
<path d="M179.315 54.997C179.19 54.997 179.127 54.8951 179.127 54.6913C179.127 54.4875 179.19 54.3856 179.315 54.3856H179.598C180.052 54.3856 180.413 54.3229 180.679 54.1975C180.946 54.0564 181.079 53.7742 181.079 53.3509L181.032 40.2996C181.032 39.8136 180.891 39.4922 180.609 39.3354C180.342 39.1786 179.927 39.0924 179.362 39.0767C179.253 39.0767 179.182 39.0454 179.151 38.9827C179.135 38.92 179.127 38.8337 179.127 38.724C179.127 38.6143 179.174 38.5437 179.268 38.5124C179.739 38.4026 180.381 38.2537 181.197 38.0656C182.012 37.8618 182.639 37.7128 183.078 37.6188V53.3509C183.078 53.7742 183.211 54.0564 183.478 54.1975C183.76 54.3229 184.128 54.3856 184.583 54.3856H184.865C184.975 54.3856 185.03 54.4875 185.03 54.6913C185.03 54.8951 184.975 54.997 184.865 54.997H179.315ZM198.555 53.0687C198.68 53.0687 198.743 53.1236 198.743 53.2333L198.719 53.3744C198.5 54.0172 198.147 54.5032 197.661 54.8324C197.175 55.1459 196.697 55.3027 196.227 55.3027C195.709 55.3027 195.286 55.1538 194.957 54.8559C194.643 54.558 194.416 54.1583 194.275 53.6566C193.711 54.2053 193.052 54.6286 192.3 54.9264C191.563 55.2086 190.826 55.3497 190.089 55.3497C189.148 55.3497 188.404 55.1302 187.855 54.6913C187.306 54.2523 187.032 53.6566 187.032 52.9041C187.032 52.3083 187.165 51.7988 187.432 51.3755C187.714 50.9366 188.153 50.5447 188.749 50.1998C189.109 49.9959 189.556 49.8157 190.089 49.6589C190.622 49.5021 191.288 49.3297 192.088 49.1415C192.37 49.0632 192.684 48.9848 193.029 48.9064C193.389 48.8123 193.781 48.7026 194.204 48.5772V47.566C194.204 46.7664 194.165 46.1864 194.087 45.8258C194.024 45.4495 193.875 45.1203 193.64 44.8381C193.326 44.4305 192.786 44.2267 192.017 44.2267C191.5 44.2267 191.085 44.3678 190.771 44.65C190.473 44.9165 190.222 45.3633 190.019 45.9904C189.752 46.8527 189.321 47.2838 188.725 47.2838C188.427 47.2838 188.153 47.1897 187.902 47.0016C187.651 46.7978 187.526 46.5313 187.526 46.2021C187.526 45.9042 187.636 45.5514 187.855 45.1438C188.09 44.7206 188.537 44.3365 189.196 43.9916C189.87 43.6467 190.826 43.4742 192.064 43.4742C192.848 43.4742 193.554 43.5996 194.181 43.8505C194.824 44.0856 195.294 44.3913 195.592 44.7676C195.843 45.0968 196.007 45.4417 196.086 45.8023C196.18 46.1472 196.227 46.5783 196.227 47.0957C196.227 47.9579 196.219 48.6791 196.203 49.2591L196.18 52.3632C196.18 53.0217 196.289 53.4606 196.509 53.6801C196.728 53.8839 196.956 53.9858 197.191 53.9858C197.395 53.9858 197.599 53.9231 197.802 53.7977C198.022 53.6723 198.218 53.4685 198.39 53.1863C198.437 53.1079 198.492 53.0687 198.555 53.0687ZM191.171 54.1739C191.688 54.1739 192.206 54.0642 192.723 53.8447C193.256 53.6096 193.734 53.2725 194.157 52.8335C194.142 52.7395 194.134 52.5984 194.134 52.4102L194.181 49.3767C192.488 49.7843 191.241 50.2311 190.442 50.7171C189.642 51.2031 189.243 51.838 189.243 52.6219C189.243 53.0609 189.399 53.4293 189.713 53.7271C190.026 54.025 190.512 54.1739 191.171 54.1739Z" fill="#F5E8C7"/>
<path d="M213.003 54.4091C213.129 54.4091 213.191 54.511 213.191 54.7148C213.191 54.9186 213.129 55.0205 213.003 55.0205H207.501C207.391 55.0205 207.336 54.9186 207.336 54.7148C207.336 54.511 207.391 54.4091 207.501 54.4091H207.83C208.269 54.4091 208.614 54.3464 208.865 54.221C209.131 54.0799 209.264 53.7977 209.264 53.3744L209.241 49.071L209.217 47.4249C209.186 45.5436 208.426 44.603 206.936 44.603C206.341 44.603 205.76 44.7833 205.196 45.1438C204.647 45.4887 204.177 46.0061 203.785 46.6959L203.762 53.3744C203.762 53.7977 203.895 54.0799 204.161 54.221C204.428 54.3464 204.788 54.4091 205.243 54.4091H205.525C205.635 54.4091 205.69 54.511 205.69 54.7148C205.69 54.9186 205.635 55.0205 205.525 55.0205H200.046C199.921 55.0205 199.858 54.9186 199.858 54.7148C199.858 54.511 199.921 54.4091 200.046 54.4091H200.328C200.783 54.4091 201.143 54.3464 201.41 54.221C201.677 54.0799 201.81 53.7977 201.81 53.3744L201.739 46.155C201.739 45.6847 201.606 45.379 201.339 45.2379C201.089 45.0968 200.657 44.9949 200.046 44.9322C199.952 44.9165 199.889 44.8773 199.858 44.8146C199.842 44.7519 199.834 44.6657 199.834 44.5559C199.834 44.4619 199.874 44.3992 199.952 44.3678C200.172 44.2894 201.449 43.9916 203.785 43.4742V45.5671C204.788 44.1718 206.003 43.4742 207.43 43.4742C208.684 43.4742 209.625 43.8191 210.252 44.5089C210.895 45.1987 211.24 46.0374 211.287 47.0251C211.302 47.3387 211.31 47.9579 211.31 48.8829C211.31 50.1527 211.295 51.6499 211.263 53.3744C211.263 53.7977 211.389 54.0799 211.639 54.221C211.906 54.3464 212.267 54.4091 212.721 54.4091H213.003Z" fill="#F5E8C7"/>
<path d="M226.252 54.221C226.441 54.221 226.535 54.3307 226.535 54.5502C226.535 54.6756 226.488 54.754 226.393 54.7853C226.017 54.8481 225.453 54.9343 224.7 55.044C223.964 55.1538 223.289 55.2478 222.678 55.3262V53.9388C222.176 54.3621 221.612 54.6991 220.985 54.95C220.373 55.2008 219.746 55.3262 219.104 55.3262C218.194 55.3262 217.363 55.0675 216.611 54.5502C215.874 54.0328 215.286 53.3117 214.847 52.3867C214.424 51.4618 214.212 50.4036 214.212 49.2121C214.212 48.1931 214.432 47.2446 214.871 46.3667C215.31 45.4887 215.898 44.7911 216.634 44.2738C217.371 43.7407 218.155 43.4742 218.986 43.4742C220.381 43.4742 221.596 43.9759 222.631 44.9792L222.607 40.3466C222.607 40.0017 222.537 39.7509 222.396 39.5941C222.27 39.4216 222.098 39.3119 221.878 39.2649C221.675 39.2178 221.361 39.1708 220.938 39.1238C220.781 39.1238 220.703 38.9984 220.703 38.7475C220.703 38.6378 220.75 38.5672 220.844 38.5359C221.236 38.4418 221.816 38.3007 222.584 38.1126C223.352 37.9245 224.042 37.7677 224.653 37.6423L224.63 53.0922C224.63 53.4528 224.732 53.7271 224.935 53.9153C225.139 54.1034 225.437 54.2053 225.829 54.221H226.252ZM220.256 54.3621C220.695 54.3621 221.126 54.268 221.549 54.0799C221.972 53.8917 222.349 53.6174 222.678 53.2568L222.631 45.8493C222.239 45.4417 221.784 45.1125 221.267 44.8616C220.75 44.5951 220.248 44.4619 219.762 44.4619C218.79 44.4619 218.006 44.9165 217.41 45.8258C216.815 46.7194 216.517 47.9266 216.517 49.4472C216.517 50.4506 216.697 51.3285 217.058 52.081C217.418 52.8179 217.889 53.3822 218.469 53.7742C219.049 54.1661 219.644 54.3621 220.256 54.3621ZM239.722 53.0687C239.847 53.0687 239.91 53.1236 239.91 53.2333L239.886 53.3744C239.667 54.0172 239.314 54.5032 238.828 54.8324C238.342 55.1459 237.864 55.3027 237.394 55.3027C236.876 55.3027 236.453 55.1538 236.124 54.8559C235.81 54.558 235.583 54.1583 235.442 53.6566C234.877 54.2053 234.219 54.6286 233.466 54.9264C232.73 55.2086 231.993 55.3497 231.256 55.3497C230.315 55.3497 229.571 55.1302 229.022 54.6913C228.473 54.2523 228.199 53.6566 228.199 52.9041C228.199 52.3083 228.332 51.7988 228.599 51.3755C228.881 50.9366 229.32 50.5447 229.916 50.1998C230.276 49.9959 230.723 49.8157 231.256 49.6589C231.789 49.5021 232.455 49.3297 233.255 49.1415C233.537 49.0632 233.851 48.9848 234.195 48.9064C234.556 48.8123 234.948 48.7026 235.371 48.5772V47.566C235.371 46.7664 235.332 46.1864 235.254 45.8258C235.191 45.4495 235.042 45.1203 234.807 44.8381C234.493 44.4305 233.952 44.2267 233.184 44.2267C232.667 44.2267 232.251 44.3678 231.938 44.65C231.64 44.9165 231.389 45.3633 231.185 45.9904C230.919 46.8527 230.488 47.2838 229.892 47.2838C229.594 47.2838 229.32 47.1897 229.069 47.0016C228.818 46.7978 228.693 46.5313 228.693 46.2021C228.693 45.9042 228.802 45.5514 229.022 45.1438C229.257 44.7206 229.704 44.3365 230.362 43.9916C231.036 43.6467 231.993 43.4742 233.231 43.4742C234.015 43.4742 234.721 43.5996 235.348 43.8505C235.99 44.0856 236.461 44.3913 236.759 44.7676C237.009 45.0968 237.174 45.4417 237.252 45.8023C237.347 46.1472 237.394 46.5783 237.394 47.0957C237.394 47.9579 237.386 48.6791 237.37 49.2591L237.347 52.3632C237.347 53.0217 237.456 53.4606 237.676 53.6801C237.895 53.8839 238.123 53.9858 238.358 53.9858C238.562 53.9858 238.765 53.9231 238.969 53.7977C239.189 53.6723 239.385 53.4685 239.557 53.1863C239.604 53.1079 239.659 53.0687 239.722 53.0687ZM232.338 54.1739C232.855 54.1739 233.372 54.0642 233.89 53.8447C234.423 53.6096 234.901 53.2725 235.324 52.8335C235.309 52.7395 235.301 52.5984 235.301 52.4102L235.348 49.3767C233.655 49.7843 232.408 50.2311 231.609 50.7171C230.809 51.2031 230.409 51.838 230.409 52.6219C230.409 53.0609 230.566 53.4293 230.88 53.7271C231.193 54.025 231.679 54.1739 232.338 54.1739Z" fill="#F5E8C7"/>
<path d="M172.37 55.35C171.241 55.35 170.246 55.0599 169.383 54.4799C168.537 53.8842 167.878 53.1316 167.408 52.2224C166.953 51.2974 166.726 50.3568 166.726 49.4005C166.726 48.3971 166.953 47.4408 167.408 46.5315C167.863 45.6222 168.521 44.8854 169.383 44.321C170.246 43.7566 171.241 43.4745 172.37 43.4745C173.514 43.4745 174.518 43.7566 175.38 44.321C176.242 44.8854 176.901 45.6222 177.355 46.5315C177.826 47.4408 178.061 48.3971 178.061 49.4005C178.061 50.3568 177.826 51.2974 177.355 52.2224C176.901 53.1316 176.234 53.8842 175.356 54.4799C174.494 55.0599 173.499 55.35 172.37 55.35ZM172.37 54.574C173.436 54.574 174.275 54.0801 174.886 53.0924C175.497 52.0891 175.803 50.8584 175.803 49.4005C175.803 47.8798 175.497 46.6413 174.886 45.6849C174.29 44.713 173.452 44.227 172.37 44.227C171.319 44.227 170.489 44.713 169.877 45.6849C169.266 46.6413 168.96 47.8798 168.96 49.4005C168.96 50.3411 169.093 51.2112 169.36 52.0107C169.642 52.7946 170.034 53.4217 170.536 53.892C171.053 54.3466 171.664 54.574 172.37 54.574Z" fill="#F5E8C7"/>
<path d="M65.1927 30.8733C65.0752 30.8733 65.0165 30.7705 65.0165 30.5649C65.0165 30.374 65.0752 30.2786 65.1927 30.2786H65.5231C66.1398 30.2786 66.6023 30.1758 66.9107 29.9702C67.219 29.75 67.3732 29.3535 67.3732 28.7809V16.909C67.3732 16.3217 67.219 15.9252 66.9107 15.7196C66.6023 15.4994 66.1398 15.3893 65.5231 15.3893H65.1927C65.0899 15.3893 65.0385 15.2865 65.0385 15.0809C65.0385 14.89 65.0899 14.7946 65.1927 14.7946L68.2102 14.7725C69.752 14.7725 71.0148 14.7946 71.9986 14.8386C73.3348 14.8974 74.5976 15.2057 75.787 15.7637C76.9911 16.307 77.9749 17.166 78.7385 18.3407C79.5167 19.5154 79.9058 21.0131 79.9058 22.8339C79.9058 24.64 79.5167 26.1304 78.7385 27.3051C77.9749 28.4798 76.9911 29.3462 75.787 29.9042C74.5976 30.4621 73.3348 30.7705 71.9986 30.8292C71.3966 30.8733 70.2366 30.8953 68.5186 30.8953L65.1927 30.8733ZM71.514 30.2125C72.351 30.2125 73.2247 30.0069 74.1351 29.5958C75.0455 29.1847 75.8384 28.4284 76.5139 27.3272C77.1893 26.2259 77.5271 24.7281 77.5271 22.8339C77.5271 20.925 77.1893 19.4273 76.5139 18.3407C75.8384 17.2394 75.0455 16.4832 74.1351 16.0721C73.2247 15.6609 72.351 15.4553 71.514 15.4553H71.3599C70.6844 15.4553 70.1999 15.5581 69.9062 15.7637C69.6272 15.9693 69.4877 16.329 69.4877 16.843V28.8469C69.4877 29.3462 69.6272 29.6986 69.9062 29.9042C70.1999 30.1097 70.6844 30.2125 71.3599 30.2125H71.514ZM89.224 20.0367C89.7086 20.0367 90.1124 20.1688 90.4355 20.4331C90.7732 20.6974 90.942 21.0131 90.942 21.3802C90.942 21.6592 90.8393 21.8942 90.6337 22.0851C90.4281 22.2759 90.1785 22.3714 89.8848 22.3714C89.6352 22.3714 89.3195 22.2392 88.9377 21.9749C88.7468 21.8428 88.578 21.74 88.4311 21.6666C88.2843 21.5931 88.1228 21.5564 87.9466 21.5564C87.2564 21.5564 86.5222 22.1291 85.744 23.2744L85.722 29.3535C85.722 29.75 85.8468 30.0069 86.0964 30.1244C86.346 30.2419 86.6838 30.3006 87.1096 30.3006H87.3739C87.4914 30.3006 87.5501 30.3961 87.5501 30.587C87.5501 30.7778 87.4914 30.8733 87.3739 30.8733H82.2419C82.1391 30.8733 82.0877 30.7778 82.0877 30.587C82.0877 30.3961 82.1391 30.3006 82.2419 30.3006H82.5062C82.9321 30.3006 83.2624 30.2419 83.4974 30.1244C83.747 30.0069 83.8718 29.75 83.8718 29.3535L83.8278 22.5476C83.8278 22.2392 83.7617 22.0116 83.6295 21.8648C83.4974 21.7033 83.3285 21.6005 83.1229 21.5564C82.9321 21.5124 82.6384 21.4683 82.2419 21.4243C82.1098 21.4096 82.0437 21.2921 82.0437 21.0719C82.0437 20.9691 82.0804 20.903 82.1538 20.8736C82.3594 20.8002 83.5561 20.5212 85.744 20.0367V22.3053C86.2579 21.6445 86.8159 21.1012 87.4179 20.6754C88.0347 20.2496 88.6367 20.0367 89.224 20.0367ZM102.974 29.0452C103.091 29.0452 103.15 29.0966 103.15 29.1993L103.128 29.3315C102.923 29.9335 102.592 30.3887 102.137 30.6971C101.682 30.9908 101.234 31.1376 100.793 31.1376C100.309 31.1376 99.9123 30.9981 99.604 30.7191C99.3103 30.4401 99.0974 30.0657 98.9652 29.5958C98.4366 30.1097 97.8199 30.5062 97.1151 30.7852C96.4249 31.0495 95.7348 31.1817 95.0447 31.1817C94.1636 31.1817 93.4662 30.9761 92.9522 30.5649C92.4383 30.1538 92.1813 29.5958 92.1813 28.891C92.1813 28.333 92.3061 27.8558 92.5558 27.4593C92.8201 27.0482 93.2312 26.6811 93.7892 26.358C94.1269 26.1671 94.5454 25.9983 95.0447 25.8514C95.5439 25.7046 96.168 25.5431 96.9169 25.3669C97.1812 25.2935 97.4748 25.22 97.7979 25.1466C98.1356 25.0585 98.5027 24.9557 98.8992 24.8383V23.8912C98.8992 23.1423 98.8625 22.599 98.789 22.2613C98.7303 21.9089 98.5908 21.6005 98.3705 21.3362C98.0769 20.9544 97.5703 20.7635 96.8508 20.7635C96.3662 20.7635 95.9771 20.8957 95.6834 21.16C95.4044 21.4096 95.1695 21.8281 94.9786 22.4154C94.729 23.223 94.3252 23.6269 93.7672 23.6269C93.4882 23.6269 93.2312 23.5387 92.9963 23.3625C92.7613 23.1717 92.6439 22.922 92.6439 22.6137C92.6439 22.3347 92.7467 22.0043 92.9522 21.6225C93.1725 21.2261 93.591 20.8663 94.2077 20.5433C94.8391 20.2202 95.7348 20.0587 96.8948 20.0587C97.629 20.0587 98.2898 20.1762 98.8771 20.4111C99.4792 20.6314 99.9197 20.9177 100.199 21.2701C100.434 21.5785 100.588 21.9015 100.661 22.2392C100.749 22.5623 100.793 22.9661 100.793 23.4506C100.793 24.2583 100.786 24.9337 100.771 25.477L100.749 28.3844C100.749 29.0011 100.852 29.4123 101.058 29.6178C101.263 29.8087 101.476 29.9042 101.696 29.9042C101.887 29.9042 102.078 29.8454 102.269 29.728C102.475 29.6105 102.658 29.4196 102.82 29.1553C102.864 29.0819 102.915 29.0452 102.974 29.0452ZM96.0579 30.0804C96.5424 30.0804 97.027 29.9776 97.5115 29.772C98.0108 29.5518 98.4586 29.2361 98.8551 28.8249C98.8404 28.7368 98.8331 28.6046 98.8331 28.4284L98.8771 25.5871C97.2913 25.9689 96.1239 26.3874 95.3751 26.8426C94.6262 27.2978 94.2517 27.8925 94.2517 28.6267C94.2517 29.0378 94.3986 29.3829 94.6923 29.6619C94.9859 29.9409 95.4411 30.0804 96.0579 30.0804ZM106.182 31.2257C105.815 31.2257 105.506 31.1009 105.257 30.8513C105.007 30.587 104.882 30.2713 104.882 29.9042C104.882 29.5518 105.007 29.2507 105.257 29.0011C105.506 28.7515 105.815 28.6267 106.182 28.6267C106.549 28.6267 106.857 28.7515 107.107 29.0011C107.371 29.2507 107.503 29.5518 107.503 29.9042C107.503 30.2713 107.371 30.587 107.107 30.8513C106.857 31.1009 106.549 31.2257 106.182 31.2257Z" fill="#F5E8C7"/>
<path d="M72.927 63.4635C72.6807 63.2111 72.3882 63.014 72.0495 62.8724C71.7169 62.7246 71.3721 62.6507 71.0149 62.6507C70.6516 62.6507 70.3098 62.7184 69.9896 62.8539C69.6694 62.9894 69.3892 63.1803 69.149 63.4266C68.9089 63.6668 68.721 63.9469 68.5856 64.2672C68.4501 64.5874 68.3823 64.9322 68.3823 65.3017C68.3823 65.665 68.4501 66.0068 68.5856 66.327C68.721 66.6473 68.9089 66.9275 69.149 67.1676C69.3892 67.4078 69.6694 67.5987 69.9896 67.7403C70.3098 67.8758 70.6516 67.9435 71.0149 67.9435C71.3721 67.9435 71.7139 67.8758 72.0402 67.7403C72.3728 67.5987 72.6684 67.4047 72.927 67.1584L73.3796 67.6202C73.1702 67.8173 72.9332 67.9897 72.6684 68.1375C72.4097 68.2853 72.1388 68.3992 71.8555 68.4793C71.5722 68.5593 71.2797 68.5994 70.978 68.5994C70.51 68.5994 70.0727 68.5162 69.6663 68.35C69.266 68.1775 68.9119 67.9405 68.604 67.6387C68.3023 67.337 68.0652 66.986 67.8928 66.5857C67.7203 66.1854 67.6341 65.7574 67.6341 65.3017C67.6341 64.846 67.7203 64.4211 67.8928 64.027C68.0652 63.6329 68.3054 63.285 68.6133 62.9832C68.9212 62.6815 69.2783 62.4475 69.6848 62.2812C70.0912 62.1149 70.5315 62.0318 71.0057 62.0318C71.3013 62.0318 71.5907 62.0687 71.874 62.1426C72.1572 62.2165 72.4251 62.3243 72.6776 62.4659C72.9301 62.6014 73.161 62.7677 73.3704 62.9647L72.927 63.4635ZM76.3188 61.69H77.0393V68.5439H76.3188V61.69ZM80.4972 63.6852H81.2084V68.5439H80.4972V63.6852ZM81.4671 61.6254L82.1968 61.9394L81.0514 62.8631L80.4233 62.78L81.4671 61.6254ZM88.3543 65.7266C88.3543 65.2832 88.2311 64.9384 87.9848 64.6921C87.7446 64.4396 87.409 64.3134 86.9779 64.3134C86.4606 64.3195 86.0573 64.495 85.7679 64.8399C85.4784 65.1786 85.3337 65.6189 85.3337 66.1608H85.0843C85.0843 65.5942 85.1705 65.1293 85.343 64.766C85.5154 64.3965 85.7617 64.1225 86.0819 63.9439C86.4083 63.7591 86.7901 63.6668 87.2273 63.6668C87.6153 63.6668 87.9478 63.7437 88.2249 63.8977C88.502 64.0516 88.7114 64.2702 88.8531 64.5535C89.0009 64.8306 89.0747 65.1662 89.0747 65.5604V68.5439H88.3543V65.7266ZM84.6225 63.6852H85.343V68.5439H84.6225V63.6852ZM92.347 63.6852H93.0582V68.5439H92.347V63.6852ZM92.698 61.8286C92.8335 61.8286 92.9443 61.8748 93.0305 61.9671C93.1229 62.0533 93.1691 62.1642 93.1691 62.2997C93.1691 62.429 93.1229 62.5398 93.0305 62.6322C92.9443 62.7246 92.8335 62.7708 92.698 62.7708C92.5687 62.7708 92.4578 62.7246 92.3655 62.6322C92.2731 62.5398 92.2269 62.429 92.2269 62.2997C92.2269 62.1642 92.2731 62.0533 92.3655 61.9671C92.4578 61.8748 92.5687 61.8286 92.698 61.8286ZM99.8623 64.8491C99.6837 64.6705 99.4713 64.532 99.225 64.4334C98.9848 64.3287 98.7169 64.2764 98.4213 64.2764C98.0888 64.2764 97.7901 64.3534 97.5253 64.5073C97.2667 64.6613 97.0635 64.8768 96.9157 65.1539C96.7679 65.431 96.694 65.7513 96.694 66.1146C96.694 66.4779 96.7679 66.8012 96.9157 67.0845C97.0635 67.3616 97.2667 67.5802 97.5253 67.7403C97.7901 67.8943 98.0888 67.9712 98.4213 67.9712C98.7354 67.9712 99.0217 67.9189 99.2804 67.8142C99.539 67.7034 99.7576 67.5433 99.9362 67.3339L100.343 67.7403C100.127 67.999 99.8531 68.2022 99.5205 68.35C99.188 68.4916 98.8124 68.5624 98.3936 68.5624C97.9256 68.5624 97.5099 68.4608 97.1466 68.2576C96.7833 68.0482 96.4969 67.7588 96.2876 67.3893C96.0843 67.0198 95.9827 66.5949 95.9827 66.1146C95.9827 65.6343 96.0843 65.2124 96.2876 64.8491C96.4969 64.4796 96.7833 64.1902 97.1466 63.9808C97.5099 63.7714 97.9256 63.6668 98.3936 63.6668C98.7877 63.6668 99.1418 63.7314 99.4559 63.8607C99.7761 63.9839 100.047 64.1563 100.269 64.378L99.8623 64.8491ZM104.539 66.2624C104.132 66.2624 103.824 66.3301 103.615 66.4656C103.406 66.6011 103.301 66.8074 103.301 67.0845C103.301 67.3616 103.399 67.5864 103.596 67.7588C103.8 67.9251 104.074 68.0082 104.419 68.0082C104.702 68.0082 104.957 67.962 105.185 67.8696C105.413 67.7773 105.601 67.6449 105.749 67.4724C105.903 67.3 106.007 67.0906 106.063 66.8443L106.247 67.4263C106.075 67.8142 105.819 68.1036 105.481 68.2945C105.142 68.4793 104.742 68.5717 104.28 68.5717C103.947 68.5717 103.655 68.507 103.402 68.3777C103.156 68.2484 102.965 68.0729 102.83 67.8512C102.694 67.6295 102.627 67.3801 102.627 67.103C102.627 66.6842 102.787 66.3517 103.107 66.1054C103.427 65.859 103.874 65.7328 104.446 65.7266H106.174V66.2624H104.539ZM106.044 65.4033C106.044 65.0338 105.933 64.7475 105.712 64.5443C105.496 64.3411 105.173 64.2395 104.742 64.2395C104.471 64.2395 104.209 64.2887 103.957 64.3872C103.704 64.4858 103.452 64.6243 103.199 64.8029L102.894 64.3318C103.104 64.1902 103.307 64.0701 103.504 63.9716C103.701 63.873 103.91 63.7992 104.132 63.7499C104.354 63.6945 104.603 63.6668 104.88 63.6668C105.484 63.6668 105.946 63.8176 106.266 64.1194C106.586 64.415 106.749 64.8214 106.756 65.3387L106.765 68.5439H106.063L106.044 65.4033ZM115.792 63.6575C116.242 63.6575 116.633 63.7591 116.965 63.9623C117.298 64.1656 117.553 64.4519 117.732 64.8214C117.917 65.1847 118.006 65.6158 118 66.1146C118.006 66.6134 117.917 67.0475 117.732 67.417C117.553 67.7865 117.298 68.0729 116.965 68.2761C116.639 68.4793 116.251 68.5809 115.802 68.5809C115.34 68.5809 114.93 68.4762 114.573 68.2668C114.222 68.0513 113.948 67.7588 113.751 67.3893C113.554 67.0198 113.455 66.5949 113.455 66.1146C113.455 65.6281 113.554 65.2032 113.751 64.8399C113.948 64.4704 114.222 64.181 114.573 63.9716C114.924 63.7622 115.33 63.6575 115.792 63.6575ZM115.931 64.2487C115.592 64.2487 115.29 64.3318 115.026 64.4981C114.761 64.6582 114.551 64.8799 114.397 65.1632C114.25 65.4403 114.176 65.7605 114.176 66.1238C114.176 66.4872 114.25 66.8104 114.397 67.0937C114.551 67.3708 114.761 67.5894 115.026 67.7496C115.29 67.9097 115.592 67.9897 115.931 67.9897C116.276 67.9897 116.581 67.9097 116.845 67.7496C117.11 67.5894 117.316 67.3708 117.464 67.0937C117.618 66.8104 117.695 66.4872 117.695 66.1238C117.695 65.7605 117.618 65.4403 117.464 65.1632C117.316 64.8799 117.11 64.6582 116.845 64.4981C116.581 64.3318 116.276 64.2487 115.931 64.2487ZM117.695 61.69H118.416V68.5439H117.695V61.69ZM125.415 65.8282C125.403 65.5019 125.326 65.2217 125.184 64.9877C125.048 64.7475 124.861 64.5628 124.62 64.4334C124.386 64.3041 124.109 64.2395 123.789 64.2395C123.45 64.2395 123.152 64.3164 122.893 64.4704C122.641 64.6243 122.441 64.8399 122.293 65.117C122.145 65.3941 122.071 65.7174 122.071 66.0869C122.071 66.4687 122.145 66.8043 122.293 67.0937C122.447 67.377 122.659 67.5987 122.93 67.7588C123.201 67.9189 123.509 67.999 123.854 67.999C124.47 67.999 124.972 67.7896 125.359 67.3708L125.757 67.768C125.523 68.0205 125.239 68.2176 124.907 68.3592C124.574 68.4947 124.208 68.5624 123.808 68.5624C123.327 68.5624 122.902 68.4608 122.533 68.2576C122.17 68.0482 121.886 67.7588 121.683 67.3893C121.48 67.0198 121.378 66.5949 121.378 66.1146C121.378 65.6343 121.48 65.2124 121.683 64.8491C121.886 64.4796 122.17 64.1933 122.533 63.9901C122.902 63.7807 123.321 63.6729 123.789 63.6668C124.313 63.6668 124.747 63.7807 125.092 64.0085C125.436 64.2302 125.689 64.5443 125.849 64.9507C126.015 65.351 126.083 65.8221 126.052 66.364H121.942V65.8282H125.415ZM132.971 62.078H137.359V62.7246H133.71V64.9415H136.971V65.5788H133.71V67.9066H137.479V68.5439H132.971V62.078ZM143.117 64.6089C142.926 64.4919 142.714 64.3996 142.48 64.3318C142.246 64.2641 142.018 64.2302 141.796 64.2302C141.525 64.2302 141.297 64.2856 141.113 64.3965C140.928 64.5012 140.836 64.6736 140.836 64.9138C140.836 65.0985 140.9 65.2463 141.029 65.3571C141.165 65.4618 141.334 65.5511 141.538 65.625C141.747 65.6928 141.966 65.7605 142.193 65.8282C142.421 65.896 142.64 65.9822 142.849 66.0869C143.059 66.1854 143.228 66.324 143.357 66.5025C143.487 66.6811 143.551 66.9151 143.551 67.2046C143.551 67.5186 143.465 67.7773 143.293 67.9805C143.126 68.1775 142.908 68.3253 142.637 68.4239C142.372 68.5162 142.083 68.5624 141.768 68.5624C141.424 68.5624 141.085 68.5039 140.752 68.3869C140.42 68.2699 140.137 68.1036 139.903 67.8881L140.18 67.3985C140.389 67.5894 140.638 67.7403 140.928 67.8512C141.223 67.9558 141.513 68.0082 141.796 68.0082C141.987 68.0082 142.159 67.9836 142.313 67.9343C142.474 67.8789 142.6 67.7988 142.692 67.6941C142.791 67.5833 142.84 67.4447 142.84 67.2785C142.846 67.0752 142.785 66.9182 142.655 66.8074C142.532 66.6904 142.366 66.5949 142.156 66.521C141.953 66.4471 141.735 66.3763 141.501 66.3086C141.273 66.2408 141.054 66.1577 140.845 66.0592C140.642 65.9545 140.475 65.819 140.346 65.6527C140.217 65.4803 140.152 65.2494 140.152 64.9599C140.152 64.6582 140.232 64.4119 140.392 64.221C140.552 64.0301 140.759 63.8884 141.011 63.7961C141.27 63.7037 141.547 63.6575 141.842 63.6575C142.132 63.6575 142.412 63.6975 142.683 63.7776C142.954 63.8515 143.191 63.9562 143.394 64.0917L143.117 64.6089ZM147.284 67.0845C147.284 67.3924 147.34 67.6141 147.45 67.7496C147.561 67.8789 147.721 67.9435 147.931 67.9435C148.054 67.9374 148.18 67.9158 148.309 67.8789C148.439 67.8358 148.571 67.7711 148.707 67.6849L148.91 68.2114C148.744 68.3223 148.565 68.4115 148.374 68.4793C148.189 68.5409 148.002 68.5717 147.811 68.5717C147.571 68.5717 147.358 68.5255 147.173 68.4331C146.989 68.3346 146.841 68.1837 146.73 67.9805C146.625 67.7773 146.573 67.5155 146.573 67.1953V62.5768H147.284V67.0845ZM145.871 63.833H148.827V64.3688H145.871V63.833ZM155.125 65.8282C155.113 65.5019 155.036 65.2217 154.894 64.9877C154.759 64.7475 154.571 64.5628 154.331 64.4334C154.097 64.3041 153.82 64.2395 153.499 64.2395C153.161 64.2395 152.862 64.3164 152.603 64.4704C152.351 64.6243 152.151 64.8399 152.003 65.117C151.855 65.3941 151.781 65.7174 151.781 66.0869C151.781 66.4687 151.855 66.8043 152.003 67.0937C152.157 67.377 152.369 67.5987 152.64 67.7588C152.911 67.9189 153.219 67.999 153.564 67.999C154.18 67.999 154.682 67.7896 155.07 67.3708L155.467 67.768C155.233 68.0205 154.95 68.2176 154.617 68.3592C154.285 68.4947 153.918 68.5624 153.518 68.5624C153.038 68.5624 152.613 68.4608 152.243 68.2576C151.88 68.0482 151.597 67.7588 151.393 67.3893C151.19 67.0198 151.089 66.5949 151.089 66.1146C151.089 65.6343 151.19 65.2124 151.393 64.8491C151.597 64.4796 151.88 64.1933 152.243 63.9901C152.613 63.7807 153.031 63.6729 153.499 63.6668C154.023 63.6668 154.457 63.7807 154.802 64.0085C155.147 64.2302 155.399 64.5443 155.559 64.9507C155.726 65.351 155.793 65.8221 155.763 66.364H151.652V65.8282H155.125ZM154.063 61.6254L154.793 61.9394L153.647 62.8631L153.019 62.78L154.063 61.6254ZM159.558 67.0845C159.558 67.3924 159.613 67.6141 159.724 67.7496C159.835 67.8789 159.995 67.9435 160.205 67.9435C160.328 67.9374 160.454 67.9158 160.583 67.8789C160.713 67.8358 160.845 67.7711 160.98 67.6849L161.184 68.2114C161.017 68.3223 160.839 68.4115 160.648 68.4793C160.463 68.5409 160.275 68.5717 160.084 68.5717C159.844 68.5717 159.632 68.5255 159.447 68.4331C159.262 68.3346 159.115 68.1837 159.004 67.9805C158.899 67.7773 158.847 67.5155 158.847 67.1953V62.5768H159.558V67.0845ZM158.145 63.833H161.101V64.3688H158.145V63.833ZM163.924 63.6852H164.635V68.5439H163.924V63.6852ZM164.275 61.8286C164.411 61.8286 164.521 61.8748 164.608 61.9671C164.7 62.0533 164.746 62.1642 164.746 62.2997C164.746 62.429 164.7 62.5398 164.608 62.6322C164.521 62.7246 164.411 62.7708 164.275 62.7708C164.146 62.7708 164.035 62.7246 163.943 62.6322C163.85 62.5398 163.804 62.429 163.804 62.2997C163.804 62.1642 163.85 62.0533 163.943 61.9671C164.035 61.8748 164.146 61.8286 164.275 61.8286ZM171.439 64.8491C171.261 64.6705 171.048 64.532 170.802 64.4334C170.562 64.3287 170.294 64.2764 169.998 64.2764C169.666 64.2764 169.367 64.3534 169.102 64.5073C168.844 64.6613 168.641 64.8768 168.493 65.1539C168.345 65.431 168.271 65.7513 168.271 66.1146C168.271 66.4779 168.345 66.8012 168.493 67.0845C168.641 67.3616 168.844 67.5802 169.102 67.7403C169.367 67.8943 169.666 67.9712 169.998 67.9712C170.312 67.9712 170.599 67.9189 170.857 67.8142C171.116 67.7034 171.335 67.5433 171.513 67.3339L171.92 67.7403C171.704 67.999 171.43 68.2022 171.098 68.35C170.765 68.4916 170.389 68.5624 169.971 68.5624C169.503 68.5624 169.087 68.4608 168.724 68.2576C168.36 68.0482 168.074 67.7588 167.865 67.3893C167.661 67.0198 167.56 66.5949 167.56 66.1146C167.56 65.6343 167.661 65.2124 167.865 64.8491C168.074 64.4796 168.36 64.1902 168.724 63.9808C169.087 63.7714 169.503 63.6668 169.971 63.6668C170.365 63.6668 170.719 63.7314 171.033 63.8607C171.353 63.9839 171.624 64.1563 171.846 64.378L171.439 64.8491ZM176.116 66.2624C175.709 66.2624 175.401 66.3301 175.192 66.4656C174.983 66.6011 174.878 66.8074 174.878 67.0845C174.878 67.3616 174.976 67.5864 175.174 67.7588C175.377 67.9251 175.651 68.0082 175.996 68.0082C176.279 68.0082 176.534 67.962 176.762 67.8696C176.99 67.7773 177.178 67.6449 177.326 67.4724C177.48 67.3 177.584 67.0906 177.64 66.8443L177.825 67.4263C177.652 67.8142 177.397 68.1036 177.058 68.2945C176.719 68.4793 176.319 68.5717 175.857 68.5717C175.525 68.5717 175.232 68.507 174.98 68.3777C174.733 68.2484 174.542 68.0729 174.407 67.8512C174.271 67.6295 174.204 67.3801 174.204 67.103C174.204 66.6842 174.364 66.3517 174.684 66.1054C175.004 65.859 175.451 65.7328 176.023 65.7266H177.751V66.2624H176.116ZM177.621 65.4033C177.621 65.0338 177.51 64.7475 177.289 64.5443C177.073 64.3411 176.75 64.2395 176.319 64.2395C176.048 64.2395 175.786 64.2887 175.534 64.3872C175.281 64.4858 175.029 64.6243 174.776 64.8029L174.471 64.3318C174.681 64.1902 174.884 64.0701 175.081 63.9716C175.278 63.873 175.488 63.7992 175.709 63.7499C175.931 63.6945 176.18 63.6668 176.457 63.6668C177.061 63.6668 177.523 63.8176 177.843 64.1194C178.163 64.415 178.326 64.8214 178.333 65.3387L178.342 68.5439H177.64L177.621 65.4033ZM187.582 62.078H188.339L191.23 68.5439H190.436L187.942 62.8354L185.467 68.5439H184.691L187.582 62.078ZM185.965 66.2254H189.891V66.8628H185.965V66.2254ZM192.812 63.6852H193.569L195.121 67.8604L196.664 63.6852H197.394L195.482 68.5439H194.733L192.812 63.6852ZM201.286 66.2624C200.879 66.2624 200.571 66.3301 200.362 66.4656C200.153 66.6011 200.048 66.8074 200.048 67.0845C200.048 67.3616 200.146 67.5864 200.344 67.7588C200.547 67.9251 200.821 68.0082 201.166 68.0082C201.449 68.0082 201.704 67.962 201.932 67.8696C202.16 67.7773 202.348 67.6449 202.496 67.4724C202.65 67.3 202.754 67.0906 202.81 66.8443L202.995 67.4263C202.822 67.8142 202.567 68.1036 202.228 68.2945C201.889 68.4793 201.489 68.5717 201.027 68.5717C200.695 68.5717 200.402 68.507 200.15 68.3777C199.903 68.2484 199.712 68.0729 199.577 67.8512C199.441 67.6295 199.374 67.3801 199.374 67.103C199.374 66.6842 199.534 66.3517 199.854 66.1054C200.174 65.859 200.621 65.7328 201.193 65.7266H202.921V66.2624H201.286ZM202.791 65.4033C202.791 65.0338 202.681 64.7475 202.459 64.5443C202.243 64.3411 201.92 64.2395 201.489 64.2395C201.218 64.2395 200.956 64.2887 200.704 64.3872C200.451 64.4858 200.199 64.6243 199.946 64.8029L199.642 64.3318C199.851 64.1902 200.054 64.0701 200.251 63.9716C200.448 63.873 200.658 63.7992 200.879 63.7499C201.101 63.6945 201.35 63.6668 201.627 63.6668C202.231 63.6668 202.693 63.8176 203.013 64.1194C203.333 64.415 203.496 64.8214 203.503 65.3387L203.512 68.5439H202.81L202.791 65.4033ZM210.515 65.7266C210.515 65.2832 210.392 64.9384 210.145 64.6921C209.905 64.4396 209.57 64.3134 209.139 64.3134C208.621 64.3195 208.218 64.495 207.929 64.8399C207.639 65.1786 207.494 65.6189 207.494 66.1608H207.245C207.245 65.5942 207.331 65.1293 207.504 64.766C207.676 64.3965 207.922 64.1225 208.243 63.9439C208.569 63.7591 208.951 63.6668 209.388 63.6668C209.776 63.6668 210.109 63.7437 210.386 63.8977C210.663 64.0516 210.872 64.2702 211.014 64.5535C211.162 64.8306 211.235 65.1662 211.235 65.5604V68.5439H210.515V65.7266ZM206.783 63.6852H207.504V68.5439H206.783V63.6852ZM217.898 64.8491C217.719 64.6705 217.507 64.532 217.26 64.4334C217.02 64.3287 216.752 64.2764 216.457 64.2764C216.124 64.2764 215.826 64.3534 215.561 64.5073C215.302 64.6613 215.099 64.8768 214.951 65.1539C214.803 65.431 214.729 65.7513 214.729 66.1146C214.729 66.4779 214.803 66.8012 214.951 67.0845C215.099 67.3616 215.302 67.5802 215.561 67.7403C215.826 67.8943 216.124 67.9712 216.457 67.9712C216.771 67.9712 217.057 67.9189 217.316 67.8142C217.574 67.7034 217.793 67.5433 217.972 67.3339L218.378 67.7403C218.162 67.999 217.888 68.2022 217.556 68.35C217.223 68.4916 216.848 68.5624 216.429 68.5624C215.961 68.5624 215.545 68.4608 215.182 68.2576C214.819 68.0482 214.532 67.7588 214.323 67.3893C214.12 67.0198 214.018 66.5949 214.018 66.1146C214.018 65.6343 214.12 65.2124 214.323 64.8491C214.532 64.4796 214.819 64.1902 215.182 63.9808C215.545 63.7714 215.961 63.6668 216.429 63.6668C216.823 63.6668 217.177 63.7314 217.491 63.8607C217.811 63.9839 218.082 64.1563 218.304 64.378L217.898 64.8491ZM216.124 68.4793L216.623 68.5439L216.457 69.0335C216.722 69.0643 216.912 69.1474 217.029 69.2829C217.146 69.4245 217.205 69.5785 217.205 69.7448C217.205 69.8987 217.162 70.0342 217.076 70.1512C216.996 70.2744 216.882 70.3698 216.734 70.4376C216.592 70.5053 216.426 70.5392 216.235 70.5392C216.093 70.5392 215.949 70.5207 215.801 70.4837C215.659 70.4468 215.533 70.4006 215.422 70.3452L215.588 69.9018C215.662 69.9449 215.752 69.9788 215.856 70.0034C215.961 70.0342 216.06 70.0496 216.152 70.0496C216.312 70.0496 216.432 70.0096 216.512 69.9295C216.592 69.8556 216.632 69.7725 216.632 69.6801C216.632 69.5877 216.589 69.5077 216.503 69.4399C216.423 69.3784 216.303 69.3476 216.143 69.3476C216.106 69.3476 216.053 69.3476 215.986 69.3476C215.924 69.3476 215.881 69.3476 215.856 69.3476L216.124 68.4793ZM222.574 66.2624C222.168 66.2624 221.86 66.3301 221.65 66.4656C221.441 66.6011 221.336 66.8074 221.336 67.0845C221.336 67.3616 221.435 67.5864 221.632 67.7588C221.835 67.9251 222.109 68.0082 222.454 68.0082C222.737 68.0082 222.993 67.962 223.221 67.8696C223.448 67.7773 223.636 67.6449 223.784 67.4724C223.938 67.3 224.043 67.0906 224.098 66.8443L224.283 67.4263C224.11 67.8142 223.855 68.1036 223.516 68.2945C223.177 68.4793 222.777 68.5717 222.315 68.5717C221.983 68.5717 221.69 68.507 221.438 68.3777C221.192 68.2484 221.001 68.0729 220.865 67.8512C220.73 67.6295 220.662 67.3801 220.662 67.103C220.662 66.6842 220.822 66.3517 221.142 66.1054C221.462 65.859 221.909 65.7328 222.482 65.7266H224.209V66.2624H222.574ZM224.08 65.4033C224.08 65.0338 223.969 64.7475 223.747 64.5443C223.532 64.3411 223.208 64.2395 222.777 64.2395C222.506 64.2395 222.245 64.2887 221.992 64.3872C221.74 64.4858 221.487 64.6243 221.235 64.8029L220.93 64.3318C221.139 64.1902 221.342 64.0701 221.539 63.9716C221.736 63.873 221.946 63.7992 222.168 63.7499C222.389 63.6945 222.639 63.6668 222.916 63.6668C223.519 63.6668 223.981 63.8176 224.301 64.1194C224.622 64.415 224.785 64.8214 224.791 65.3387L224.8 68.5439H224.098L224.08 65.4033ZM229.919 63.6575C230.368 63.6575 230.759 63.7591 231.092 63.9623C231.425 64.1656 231.68 64.4519 231.859 64.8214C232.043 65.1847 232.133 65.6158 232.127 66.1146C232.133 66.6134 232.043 67.0475 231.859 67.417C231.68 67.7865 231.425 68.0729 231.092 68.2761C230.766 68.4793 230.378 68.5809 229.928 68.5809C229.466 68.5809 229.057 68.4762 228.7 68.2668C228.349 68.0513 228.075 67.7588 227.877 67.3893C227.68 67.0198 227.582 66.5949 227.582 66.1146C227.582 65.6281 227.68 65.2032 227.877 64.8399C228.075 64.4704 228.349 64.181 228.7 63.9716C229.051 63.7622 229.457 63.6575 229.919 63.6575ZM230.057 64.2487C229.719 64.2487 229.417 64.3318 229.152 64.4981C228.887 64.6582 228.678 64.8799 228.524 65.1632C228.376 65.4403 228.302 65.7605 228.302 66.1238C228.302 66.4872 228.376 66.8104 228.524 67.0937C228.678 67.3708 228.887 67.5894 229.152 67.7496C229.417 67.9097 229.719 67.9897 230.057 67.9897C230.402 67.9897 230.707 67.9097 230.972 67.7496C231.237 67.5894 231.443 67.3708 231.591 67.0937C231.745 66.8104 231.822 66.4872 231.822 66.1238C231.822 65.7605 231.745 65.4403 231.591 65.1632C231.443 64.8799 231.237 64.6582 230.972 64.4981C230.707 64.3318 230.402 64.2487 230.057 64.2487ZM231.822 61.69H232.542V68.5439H231.822V61.69ZM237.491 66.2624C237.084 66.2624 236.776 66.3301 236.567 66.4656C236.358 66.6011 236.253 66.8074 236.253 67.0845C236.253 67.3616 236.352 67.5864 236.549 67.7588C236.752 67.9251 237.026 68.0082 237.371 68.0082C237.654 68.0082 237.91 67.962 238.137 67.8696C238.365 67.7773 238.553 67.6449 238.701 67.4724C238.855 67.3 238.96 67.0906 239.015 66.8443L239.2 67.4263C239.027 67.8142 238.772 68.1036 238.433 68.2945C238.094 68.4793 237.694 68.5717 237.232 68.5717C236.9 68.5717 236.607 68.507 236.355 68.3777C236.108 68.2484 235.917 68.0729 235.782 67.8512C235.646 67.6295 235.579 67.3801 235.579 67.103C235.579 66.6842 235.739 66.3517 236.059 66.1054C236.379 65.859 236.826 65.7328 237.398 65.7266H239.126V66.2624H237.491ZM238.996 65.4033C238.996 65.0338 238.886 64.7475 238.664 64.5443C238.448 64.3411 238.125 64.2395 237.694 64.2395C237.423 64.2395 237.161 64.2887 236.909 64.3872C236.656 64.4858 236.404 64.6243 236.151 64.8029L235.847 64.3318C236.056 64.1902 236.259 64.0701 236.456 63.9716C236.653 63.873 236.863 63.7992 237.084 63.7499C237.306 63.6945 237.555 63.6668 237.833 63.6668C238.436 63.6668 238.898 63.8176 239.218 64.1194C239.538 64.415 239.702 64.8214 239.708 65.3387L239.717 68.5439H239.015L238.996 65.4033Z" fill="#F5E8C7"/>
<path d="M26.7452 41.3713C28.6624 41.5582 29.7336 41.5548 31.5177 41.3713C30.4936 31.0653 27.9469 26.6207 21.1773 20.5138C14.6781 15.8894 9.90897 14.0179 1.11524 14.2388C0.84814 15.8788 0.783777 16.906 0.761719 18.6136C8.17022 18.4565 12.003 19.5699 18.0399 23.6954C24.1468 29.2651 26.1201 33.1581 26.7452 41.3713Z" fill="#F5E8C7"/>
<path d="M31.5182 41.3713C29.601 41.5582 28.5741 41.5989 26.7899 41.4155C27.814 31.1095 30.1839 26.6207 36.9535 20.5138C43.4528 15.8894 48.2219 14.0179 57.0156 14.2388C57.2827 15.8788 57.3471 16.906 57.3691 18.6136C49.9606 18.4565 46.1278 19.5699 40.091 23.6954C33.9841 29.2651 32.1433 33.1581 31.5182 41.3713Z" fill="#F5E8C7"/>
<path d="M5.44651 18.7016C3.52931 18.5147 2.54656 18.3855 0.762413 18.569C0.762413 26.7138 4.07662 33.8144 10.9702 39.6033C17.4219 44.3897 22.106 45.0386 22.106 45.0386C22.106 42.2988 22.0839 42.1505 22.106 40.4429C22.106 40.4429 18.9243 39.8242 14.1519 36.3332C8.09789 30.8537 5.80003 26.0812 5.44651 18.7016Z" fill="#F5E8C7"/>
<path d="M52.7279 18.6579C54.6451 18.471 55.5836 18.386 57.3678 18.5695C57.3678 26.7143 54.142 33.5939 47.2042 39.5898C40.7525 44.3762 36.687 44.9065 36.4219 44.9949L36.4219 40.3992C38.6314 39.4712 37.9857 40.4592 44.0225 36.3337C49.4137 31.6938 52.5069 26.5678 52.7279 18.6579Z" fill="#F5E8C7"/>
<path d="M22.1051 47.0715V42.5642C15.3489 45.0273 12.8695 47.867 11.1019 49.9439C6.77124 55.2024 5.09209 61.9193 6.72713 68.7687L11.0576 67.7965C9.86457 61.2564 11.4554 56.7491 14.4161 52.7278C18.3932 48.0879 22.1051 47.0715 22.1051 47.0715Z" fill="#F5E8C7"/>
<path d="M36.4228 47.2039V42.7407C37.4391 43.1384 41.9023 44.1106 46.9841 49.8995C51.2705 55.4673 52.9497 60.6375 51.3589 68.7242L47.0725 67.7521C48.2214 61.7865 47.2934 57.7652 43.6699 52.6834C38.6377 47.4475 36.6437 47.5574 36.4228 47.2039Z" fill="#F5E8C7"/>
<path d="M26.7452 41.3708H31.5177C31.0758 48.4854 28.8663 55.2906 23.1658 60.8585C17.5979 65.8519 13.7642 67.4639 6.7273 68.7684C6.39689 67.0197 6.28788 66.0342 6.24121 64.2611C11.8868 63.3245 14.814 61.9632 19.4539 58.0745C24.9485 52.833 26.6568 46.6294 26.7452 41.3708Z" fill="#F5E8C7"/>
<path d="M31.518 41.3708L26.8339 41.415C26.7455 48.7063 29.662 55.158 35.009 60.8585C40.8023 65.7652 44.4106 67.4639 51.4475 68.7684C51.7779 67.0197 51.8869 66.0342 51.9336 64.2611C46.288 63.3245 43.3166 61.8748 38.7209 58.0303C33.6833 53.2137 31.518 47.2039 31.518 41.3708Z" fill="#F5E8C7"/>
<path d="M38.0241 9.58798C38.0241 14.5481 34.0031 18.569 29.0431 18.569C24.083 18.569 20.062 14.5481 20.062 9.58798C20.062 4.62788 24.083 0.606934 29.0431 0.606934C34.0031 0.606934 38.0241 4.62788 38.0241 9.58798ZM23.6544 9.58798C23.6544 12.564 26.067 14.9766 29.0431 14.9766C32.0191 14.9766 34.4317 12.564 34.4317 9.58798C34.4317 6.61192 32.0191 4.19935 29.0431 4.19935C26.067 4.19935 23.6544 6.61192 23.6544 9.58798Z" fill="#F5E8C7"/>
</svg>
